<?xml version="1.0" standalone="no"?>
<!DOCTYPE svg PUBLIC "-//W3C//DTD SVG 20010904//EN"
 "http://www.w3.org/TR/2001/REC-SVG-20010904/DTD/svg10.dtd">
<svg version="1.0" xmlns="http://www.w3.org/2000/svg"
 width="512.000000pt" height="512.000000pt" viewBox="0 0 512.000000 512.000000"
 preserveAspectRatio="xMidYMid meet">

<g transform="translate(0.000000,512.000000) scale(0.100000,-0.100000)"
fill="#000000" stroke="none">
<path d="M952 4429 c-101 -20 -192 -95 -241 -198 l-26 -56 0 -1615 0 -1615 26
-56 c37 -79 90 -133 167 -171 l67 -33 1615 0 1615 0 67 33 c77 38 130 92 167
171 l26 56 0 1615 0 1615 -33 67 c-38 77 -92 130 -171 167 l-56 26 -1590 1
c-875 1 -1609 -2 -1633 -7z m799 -661 c100 -60 152 -148 152 -260 0 -171 -140
-298 -313 -286 -242 18 -354 297 -195 486 14 17 54 45 88 62 57 29 68 31 143
28 65 -3 90 -9 125 -30z m1597 -764 c217 -48 339 -196 388 -469 13 -73 17
-193 21 -627 l5 -538 -255 0 -256 0 -3 498 c-4 565 -4 567 -81 646 -52 54
-103 70 -207 64 -110 -7 -181 -50 -225 -136 -40 -80 -45 -148 -45 -619 l0
-453 -250 0 -250 0 0 810 0 810 238 -2 237 -3 5 -110 5 -110 22 35 c48 76 163
162 263 195 104 34 257 38 388 9z m-1478 -824 l0 -810 -250 0 -250 0 0 810 0
810 250 0 250 0 0 -810z"/>
</g>
</svg>
